<?xml version="1.0" standalone="no"?>
<!DOCTYPE svg PUBLIC "-//W3C//DTD SVG 20010904//EN"
 "http://www.w3.org/TR/2001/REC-SVG-20010904/DTD/svg10.dtd">
<svg version="1.0" xmlns="http://www.w3.org/2000/svg"
 width="35.000000pt" height="33.000000pt" viewBox="0 0 35.000000 33.000000"
 preserveAspectRatio="xMidYMid meet">

<g transform="translate(0.000000,33.000000) scale(0.100000,-0.100000)"
fill="#000000" stroke="none">
<path d="M143 270 c-53 -21 -31 -110 27 -110 30 0 60 30 60 60 0 39 -47 66
-87 50z m57 -25 c26 -32 -13 -81 -47 -59 -23 14 -28 41 -13 59 16 19 44 19 60
0z"/>
<path d="M108 129 c-29 -11 -42 -36 -32 -63 5 -13 22 -16 94 -16 78 0 89 2 95
19 9 28 -4 49 -37 60 -37 13 -83 13 -120 0z m134 -27 c6 -6 8 -17 5 -25 -4
-11 -23 -14 -79 -13 -61 1 -73 4 -76 19 -2 10 5 21 20 27 28 12 115 7 130 -8z"/>
</g>
</svg>
