<?xml version="1.0" standalone="no"?>
<!DOCTYPE svg PUBLIC "-//W3C//DTD SVG 20010904//EN"
 "http://www.w3.org/TR/2001/REC-SVG-20010904/DTD/svg10.dtd">
<svg version="1.0" xmlns="http://www.w3.org/2000/svg"
 width="36.000000pt" height="33.000000pt" viewBox="0 0 36.000000 33.000000"
 preserveAspectRatio="xMidYMid meet">

<g transform="translate(0.000000,33.000000) scale(0.100000,-0.100000)"
fill="#000000" stroke="none">
<path d="M85 255 c-35 -34 -35 -96 1 -132 23 -23 31 -25 77 -20 48 5 55 3 84
-26 18 -17 36 -27 40 -23 4 4 -7 20 -24 34 -31 26 -32 29 -26 84 5 51 3 59
-20 82 -36 36 -98 36 -132 1z m123 -8 c24 -24 26 -80 4 -107 -28 -34 -96 -35
-123 -1 -33 40 -20 103 24 121 27 12 77 4 95 -13z"/>
</g>
</svg>
